<svg width="450" height="1080" viewBox="0 0 450 1080" fill="none" xmlns="http://www.w3.org/2000/svg">
<rect x="0.5" y="0.5" width="449" height="1079" fill="#EFF1F5" stroke="#DCDFEA"/>
<path d="M225.226 494.829V517.657M213.812 506.243H236.641M253.762 506.243C253.762 522.003 240.986 534.779 225.226 534.779C209.467 534.779 196.691 522.003 196.691 506.243C196.691 490.483 209.467 477.707 225.226 477.707C240.986 477.707 253.762 490.483 253.762 506.243Z" stroke="#667085" stroke-width="4" stroke-linecap="round" stroke-linejoin="round"/>
<path d="M323.631 566.168V583.317H330.453V586.444H323.631V608.283H319.936V566.168H323.631ZM291.323 597.34C302.195 591.939 308.116 583.814 308.969 573.842H293.265V570.716H312.735C312.712 582.63 307.122 593.502 293.407 600.277L291.323 597.34Z" fill="#667085"/>
<path d="M288.94 591.655V594.781H271.554V608.378H267.906V594.781H250.568V591.655H288.94ZM252.984 585.401C260.492 584.383 267.883 579.788 267.906 574.506V574.458H254.31V571.426H267.906V566.168H271.554V571.426H285.245V574.458H271.602V574.506C271.602 579.764 278.944 584.383 286.477 585.401L285.103 588.386C278.589 587.391 272.454 584.122 269.778 579.551C267.101 584.17 260.871 587.391 254.358 588.386L252.984 585.401Z" fill="#667085"/>
<path d="M214.442 579.101C214.466 586.254 219.653 593.526 225.859 596.203L223.775 599.14C218.848 596.913 214.608 592.058 212.642 586.231C210.676 592.413 206.412 597.766 201.604 600.182L199.377 597.245C205.418 594.355 210.676 586.396 210.7 579.101V573.605H200.751V570.526H224.486V573.605H214.442V579.101ZM230.36 608.283V566.168H234.102V608.283H230.36Z" fill="#667085"/>
<path d="M180.841 570.337V597.719H161.37V570.337H180.841ZM165.018 594.687H177.193V573.321H165.018V594.687ZM189.889 608.378V566.168H193.632V608.378H189.889Z" fill="#667085"/>
<path d="M153.162 566.168V608.378H149.419V566.168H153.162ZM120 584.122C120.024 575.169 124.477 569.46 130.754 569.437C137.007 569.46 141.531 575.169 141.508 584.122C141.531 593.1 137.007 598.785 130.754 598.761C124.477 598.785 120.024 593.1 120 584.122ZM123.6 584.122C123.6 590.968 126.538 595.468 130.754 595.445C134.994 595.468 137.907 590.968 137.907 584.122C137.907 577.277 134.994 572.776 130.754 572.753C126.538 572.776 123.6 577.277 123.6 584.122Z" fill="#667085"/>
</svg>
