<svg width="348" height="32" viewBox="0 0 348 32" fill="none" xmlns="http://www.w3.org/2000/svg">
<path fill-rule="evenodd" clip-rule="evenodd" d="M11.5 0C5.14873 0 0 5.14873 0 11.5C0 17.8513 5.14874 23 11.5 23H168.689L171.555 31.2723C171.866 32.1692 173.134 32.1692 173.445 31.2723L176.31 23H336.5C342.851 23 348 17.8513 348 11.5C348 5.14873 342.851 0 336.5 0H11.5Z" fill="#949DCE"/>
<path d="M265.509 9.27637V10.1035H258.903V6.84863H259.913V9.27637H265.509ZM257.732 11.9619V11.124H266.519V11.9619H257.732ZM258.774 14.4971C258.774 13.3745 260.025 12.7407 262.115 12.7461C264.188 12.7407 265.429 13.3745 265.434 14.4971C265.429 15.625 264.188 16.2588 262.115 16.2588C260.025 16.2588 258.774 15.625 258.774 14.4971ZM259.805 14.4971C259.8 15.1147 260.643 15.4692 262.115 15.4746C263.565 15.4692 264.414 15.1147 264.414 14.4971C264.414 13.874 263.565 13.5464 262.115 13.541C260.643 13.5464 259.8 13.874 259.805 14.4971Z" fill="white"/>
<path d="M255.723 6.67676V10.5117H257.216V11.3604H255.723V16.291H254.703V6.67676H255.723ZM248.236 13.7236C250.647 12.5205 251.958 10.7803 252.167 8.53516H248.719V7.68652H253.209C253.199 10.4688 251.974 12.9556 248.805 14.5186L248.236 13.7236Z" fill="white"/>
<path d="M244.517 11.2422V12.0801H237.814V7.53613H244.431V8.37402H238.824V11.2422H244.517ZM236.718 15.0342V14.1855H245.527V15.0342H236.718Z" fill="white"/>
<path d="M236.02 14.293V15.1523H227.211V14.293H231.089V12.6064H228.286V9.54492H233.936V8.19141H228.264V7.35352H234.946V10.3613H229.295V11.7686H235.171V12.6064H232.099V14.293H236.02Z" fill="white"/>
<path d="M226.502 11.5V12.3271H222.689V14.1963H221.658V12.3271H217.694V11.5H226.502ZM218.661 8.85742C218.655 7.6543 220.02 6.90771 222.087 6.90234C224.155 6.90771 225.509 7.6543 225.503 8.85742C225.509 10.0552 224.155 10.8018 222.087 10.8018C220.02 10.8018 218.655 10.0552 218.661 8.85742ZM218.8 16.0977V13.2725H219.821V15.2598H225.525V16.0977H218.8ZM219.756 8.85742C219.746 9.55029 220.68 9.97461 222.087 9.97461C223.5 9.97461 224.424 9.55029 224.429 8.85742C224.424 8.14307 223.5 7.72412 222.087 7.71875C220.68 7.72412 219.746 8.14307 219.756 8.85742Z" fill="white"/>
<path d="M215.696 6.67676V10.4043H217.243V11.2422H215.696V16.3232H214.675V6.67676H215.696ZM208.606 13.9277V7.60059H213.107V8.42773H209.626V13.0791C211.243 13.0737 212.452 13.0039 213.827 12.7568L213.956 13.6162C212.446 13.8848 211.168 13.9331 209.379 13.9277H208.606Z" fill="white"/>
<path d="M199.54 9.12598C199.529 10.8823 200.592 12.6548 202.085 13.3154L201.473 14.1211C200.367 13.5947 199.491 12.5151 199.04 11.1992C198.594 12.6118 197.708 13.772 196.553 14.3359L195.93 13.4766C197.445 12.8052 198.508 10.9629 198.508 9.12598V7.48242H199.54V9.12598ZM202.956 16.3232V6.67676H203.976V16.3232H202.956Z" fill="white"/>
<path d="M195.296 11.9297V12.7568H186.488V11.9297H190.387V11.0166H187.616V8.56738H193.169V7.70801H187.594V6.90234H194.19V9.31934H188.625V10.2217H194.383V11.0166H191.397V11.9297H195.296ZM187.476 14.25V13.4336H194.244V16.2266H193.212V14.25H187.476Z" fill="white"/>
<path d="M185.779 11.1992V12.0371H176.992V11.1992H185.779ZM178.034 14.54C178.034 13.4229 179.285 12.7891 181.375 12.7891C183.448 12.7891 184.688 13.4229 184.694 14.54C184.688 15.6572 183.448 16.2856 181.375 16.2803C179.285 16.2856 178.034 15.6572 178.034 14.54ZM178.087 10.3613V7.02051H184.694V7.8584H179.097V9.53418H184.758V10.3613H178.087ZM179.065 14.54C179.06 15.1577 179.903 15.4907 181.375 15.4961C182.825 15.4907 183.673 15.1577 183.673 14.54C183.673 13.9277 182.825 13.584 181.375 13.5732C179.903 13.584 179.06 13.9277 179.065 14.54Z" fill="white"/>
<path d="M168.892 7.28906V8.12695H166.207V9.16895H168.516V9.96387H166.207V11.1133C167.479 11.1025 168.312 11.0542 169.3 10.877L169.397 11.6826C168.291 11.8921 167.372 11.9297 165.852 11.9297H165.229V7.28906H168.892ZM166.572 16.1836V12.8857H173.006V16.1836H166.572ZM167.592 15.3564H172.007V13.6914H167.592V15.3564ZM168.957 9.88867V9.06152H170.149V6.83789H171.116V12.3809H170.149V9.88867H168.957ZM172.04 12.4561V6.67676H173.006V12.4561H172.04Z" fill="white"/>
<path d="M163.263 6.67676V16.3232H162.243V6.67676H163.263ZM155.625 10.7695C155.625 8.7124 156.662 7.40186 158.118 7.39648C159.546 7.40186 160.599 8.7124 160.599 10.7695C160.599 12.8481 159.546 14.1587 158.118 14.1533C156.662 14.1587 155.625 12.8481 155.625 10.7695ZM156.614 10.7695C156.608 12.3003 157.221 13.2402 158.118 13.2402C158.999 13.2402 159.611 12.3003 159.611 10.7695C159.611 9.26025 158.999 8.31494 158.118 8.30957C157.221 8.31494 156.608 9.26025 156.614 10.7695Z" fill="white"/>
<path d="M148.364 7.39648C149.803 7.40186 150.829 8.7124 150.834 10.7695C150.829 12.8481 149.803 14.1587 148.364 14.1533C146.924 14.1587 145.898 12.8481 145.904 10.7695C145.898 8.7124 146.924 7.40186 148.364 7.39648ZM146.881 10.7695C146.876 12.3003 147.488 13.2402 148.364 13.2402C149.255 13.2402 149.857 12.3003 149.857 10.7695C149.857 9.26025 149.255 8.31494 148.364 8.30957C147.488 8.31494 146.876 9.26025 146.881 10.7695ZM152.263 16.3018V6.67676H153.284V10.4473H154.831V11.3066H153.284V16.3018H152.263Z" fill="white"/>
<path d="M136.483 7.28906C137.965 7.28906 139.066 8.22363 139.072 9.57715C139.066 10.7695 138.212 11.6343 136.999 11.8276V13.353C137.853 13.3101 138.707 13.2456 139.501 13.1436L139.577 13.9062C137.541 14.2607 135.301 14.2769 133.636 14.2607L133.475 13.4229C134.222 13.4175 135.081 13.4121 135.978 13.3906V11.8276C134.737 11.645 133.889 10.7749 133.894 9.57715C133.889 8.22363 134.974 7.28906 136.483 7.28906ZM134.882 9.57715C134.877 10.4312 135.559 11.0005 136.483 10.9951C137.396 11.0005 138.067 10.4312 138.073 9.57715C138.067 8.71777 137.396 8.15918 136.483 8.14844C135.559 8.15918 134.877 8.71777 134.882 9.57715ZM140.082 16.3018V6.67676H141.102V10.5869H142.584V11.4463H141.102V16.3018H140.082Z" fill="white"/>
<path d="M127.631 9.5127C127.626 11.124 128.684 12.7891 130.167 13.4229L129.608 14.2178C128.475 13.7183 127.572 12.6548 127.126 11.3711C126.681 12.7461 125.778 13.917 124.656 14.4648L124.065 13.6592C125.515 12.9771 126.589 11.1724 126.6 9.5127V8.49219H124.398V7.64355H129.823V8.49219H127.631V9.5127ZM131.037 16.3018V6.67676H132.057V16.3018H131.037Z" fill="white"/>
<path d="M119.628 7.60059V13.9277H115.117V7.60059H119.628ZM116.126 13.1006H118.64V8.40625H116.126V13.1006ZM121.53 16.3232V6.67676H122.55V16.3232H121.53Z" fill="white"/>
<path d="M113.043 6.67676V16.3232H112.023V6.67676H113.043ZM105.406 10.7695C105.406 8.7124 106.442 7.40186 107.898 7.39648C109.327 7.40186 110.379 8.7124 110.379 10.7695C110.379 12.8481 109.327 14.1587 107.898 14.1533C106.442 14.1587 105.406 12.8481 105.406 10.7695ZM106.394 10.7695C106.389 12.3003 107.001 13.2402 107.898 13.2402C108.779 13.2402 109.391 12.3003 109.391 10.7695C109.391 9.26025 108.779 8.31494 107.898 8.30957C107.001 8.31494 106.389 9.26025 106.394 10.7695Z" fill="white"/>
<path d="M96.4146 9.12598C96.4038 10.8823 97.4673 12.6548 98.9604 13.3154L98.3481 14.1211C97.2417 13.5947 96.3662 12.5151 95.915 11.1992C95.4692 12.6118 94.583 13.772 93.4282 14.3359L92.8052 13.4766C94.3198 12.8052 95.3833 10.9629 95.3833 9.12598V7.48242H96.4146V9.12598ZM99.8306 16.3232V6.67676H100.851V16.3232H99.8306Z" fill="white"/>
<path d="M91.6558 6.67676V16.3018H90.6782V6.67676H91.6558ZM83.481 10.834C83.481 8.75 84.2974 7.44482 85.5542 7.4502C86.376 7.44482 87.0098 7.99268 87.3535 8.94336H88.7554V6.85938H89.7222V15.8291H88.7554V12.7246H87.3589C87.0098 13.6807 86.376 14.2339 85.5542 14.2285C84.2974 14.2339 83.481 12.9233 83.481 10.834ZM84.4155 10.834C84.4102 12.3647 84.8398 13.2671 85.5542 13.2617C86.2632 13.2671 86.7144 12.3647 86.7144 10.834C86.7144 9.29785 86.2632 8.40088 85.5542 8.40625C84.8398 8.40088 84.4102 9.29785 84.4155 10.834ZM87.5684 9.77051C87.6221 10.0981 87.6489 10.4526 87.6489 10.834C87.6489 11.21 87.6221 11.5645 87.5684 11.8867H88.7554V9.77051H87.5684Z" fill="white"/>
</svg>
