<svg width="450" height="1080" viewBox="0 0 450 1080" fill="none" xmlns="http://www.w3.org/2000/svg">
<rect x="0.5" y="0.5" width="449" height="1079" fill="#EFF1F5" stroke="#DCDFEA"/>
<path d="M225.926 523.388V531.388M221.926 527.388H229.926M235.926 527.388C235.926 532.911 231.449 537.388 225.926 537.388C220.403 537.388 215.926 532.911 215.926 527.388C215.926 521.865 220.403 517.388 225.926 517.388C231.449 517.388 235.926 521.865 235.926 527.388Z" stroke="#667085" stroke-width="2" stroke-linecap="round" stroke-linejoin="round"/>
<path d="M200.692 548.974V563.766H199.381V548.974H200.692ZM192.84 550.12C195.031 550.136 196.608 552.128 196.608 555.266C196.608 558.404 195.031 560.396 192.84 560.396C190.632 560.396 189.071 558.404 189.071 555.266C189.071 552.128 190.632 550.136 192.84 550.12ZM192.84 551.282C191.362 551.298 190.333 552.859 190.333 555.266C190.333 557.673 191.362 559.234 192.84 559.234C194.317 559.234 195.347 557.673 195.347 555.266C195.347 552.859 194.317 551.298 192.84 551.282ZM210.392 550.435V560.031H203.569V550.435H210.392ZM204.847 551.481V558.968H209.114V551.481H204.847ZM214.875 548.974V563.766H213.563V548.974H214.875ZM222.167 553.506C222.167 556.013 223.994 558.553 226.168 559.499L225.438 560.529C223.711 559.74 222.217 558.039 221.537 555.997C220.839 558.163 219.354 560.047 217.668 560.894L216.888 559.865C218.997 558.852 220.839 556.063 220.856 553.506V551.581H217.37V550.501H225.687V551.581H222.167V553.506ZM229.057 548.974V563.733H227.746V548.974H229.057ZM248.274 557.906V559.001H242.182V563.766H240.903V559.001H234.827V557.906H248.274ZM242.198 551.896C242.198 553.739 244.772 555.349 247.411 555.714L246.93 556.76C244.647 556.412 242.497 555.266 241.567 553.656C240.621 555.283 238.438 556.412 236.155 556.76L235.674 555.714C238.297 555.349 240.903 553.755 240.903 551.896V551.879H236.139V550.817H240.903V548.974H242.182V550.817H246.98V551.879H242.198V551.896ZM260.431 548.974V554.984H262.822V556.08H260.431V563.733H259.137V548.974H260.431ZM256.613 550.568C256.613 554.751 254.654 558.553 249.84 560.927L249.109 559.898C252.928 557.997 255.003 555.158 255.302 551.664H249.79V550.568H256.613Z" fill="#667085"/>
</svg>
