<svg width="450" height="1080" viewBox="0 0 450 1080" fill="none" xmlns="http://www.w3.org/2000/svg">
<rect x="0.5" y="0.5" width="449" height="1079" fill="#EFF1F5" stroke="#DCDFEA"/>
<path d="M224.727 513.391V526.783M218.031 520.087H231.422M241.466 520.087C241.466 529.332 233.971 536.826 224.727 536.826C215.482 536.826 207.987 529.332 207.987 520.087C207.987 510.842 215.482 503.348 224.727 503.348C233.971 503.348 241.466 510.842 241.466 520.087Z" stroke="#667085" stroke-width="3.2" stroke-linecap="round" stroke-linejoin="round"/>
<path d="M282.451 555.239V565.299H286.453V567.133H282.451V579.944H280.284V555.239H282.451ZM263.499 573.525C269.877 570.357 273.35 565.591 273.85 559.741H264.638V557.907H276.06C276.046 564.896 272.767 571.274 264.722 575.248L263.499 573.525Z" fill="#667085"/>
<path d="M262.101 570.19V572.024H251.903V580H249.763V572.024H239.592V570.19H262.101ZM241.009 566.522C245.414 565.925 249.749 563.229 249.763 560.13V560.103H241.787V558.324H249.763V555.239H251.903V558.324H259.934V560.103H251.93V560.13C251.93 563.215 256.238 565.925 260.656 566.522L259.85 568.273C256.029 567.689 252.431 565.772 250.861 563.09C249.29 565.799 245.636 567.689 241.815 568.273L241.009 566.522Z" fill="#667085"/>
<path d="M218.4 562.826C218.414 567.022 221.457 571.288 225.098 572.858L223.875 574.581C220.985 573.275 218.498 570.426 217.344 567.008C216.191 570.635 213.69 573.775 210.869 575.192L209.563 573.469C213.106 571.774 216.191 567.106 216.205 562.826V559.602H210.369V557.796H224.292V559.602H218.4V562.826ZM227.738 579.944V555.239H229.933V579.944H227.738Z" fill="#667085"/>
<path d="M198.69 557.685V573.747H187.268V557.685H198.69ZM189.408 571.969H196.55V559.436H189.408V571.969ZM203.997 580V555.239H206.193V580H203.997Z" fill="#667085"/>
<path d="M182.453 555.239V580H180.257V555.239H182.453ZM163 565.772C163.014 560.519 165.626 557.171 169.308 557.157C172.977 557.171 175.63 560.519 175.617 565.772C175.63 571.038 172.977 574.373 169.308 574.359C165.626 574.373 163.014 571.038 163 565.772ZM165.112 565.772C165.112 569.787 166.835 572.427 169.308 572.413C171.795 572.427 173.505 569.787 173.505 565.772C173.505 561.756 171.795 559.116 169.308 559.102C166.835 559.116 165.112 561.756 165.112 565.772Z" fill="#667085"/>
</svg>
