<svg width="342" height="608" viewBox="0 0 342 608" fill="none" xmlns="http://www.w3.org/2000/svg">
<rect x="0.5" y="0.5" width="341" height="607" fill="#EFF1F5" stroke="#DCDFEA"/>
<path d="M171.704 287V295M167.704 291H175.704M181.704 291C181.704 296.523 177.227 301 171.704 301C166.181 301 161.704 296.523 161.704 291C161.704 285.477 166.181 281 171.704 281C177.227 281 181.704 285.477 181.704 291Z" stroke="#667085" stroke-width="2" stroke-linecap="round" stroke-linejoin="round"/>
<path d="M146.47 312.586V327.378H145.159V312.586H146.47ZM138.618 313.731C140.809 313.748 142.386 315.74 142.386 318.878C142.386 322.016 140.809 324.008 138.618 324.008C136.41 324.008 134.849 322.016 134.849 318.878C134.849 315.74 136.41 313.748 138.618 313.731ZM138.618 314.894C137.14 314.91 136.111 316.471 136.111 318.878C136.111 321.285 137.14 322.846 138.618 322.846C140.095 322.846 141.125 321.285 141.125 318.878C141.125 316.471 140.095 314.91 138.618 314.894ZM156.17 314.047V323.643H149.347V314.047H156.17ZM150.625 315.093V322.58H154.892V315.093H150.625ZM160.653 312.586V327.378H159.341V312.586H160.653ZM167.945 317.118C167.945 319.625 169.772 322.165 171.946 323.111L171.216 324.141C169.489 323.352 167.995 321.65 167.315 319.608C166.617 321.775 165.131 323.659 163.446 324.506L162.666 323.477C164.775 322.464 166.617 319.675 166.634 317.118V315.192H163.148V314.113H171.465V315.192H167.945V317.118ZM174.835 312.586V327.345H173.524V312.586H174.835ZM194.052 321.518V322.613H187.96V327.378H186.681V322.613H180.605V321.518H194.052ZM187.976 315.508C187.976 317.351 190.549 318.961 193.189 319.326L192.708 320.372C190.425 320.023 188.275 318.878 187.345 317.268C186.399 318.895 184.216 320.023 181.933 320.372L181.452 319.326C184.075 318.961 186.681 317.367 186.681 315.508V315.491H181.917V314.429H186.681V312.586H187.96V314.429H192.757V315.491H187.976V315.508ZM206.209 312.586V318.596H208.6V319.691H206.209V327.345H204.914V312.586H206.209ZM202.391 314.18C202.391 318.363 200.432 322.165 195.618 324.539L194.887 323.51C198.705 321.609 200.781 318.77 201.079 315.275H195.568V314.18H202.391Z" fill="#667085"/>
</svg>
